<svg xmlns="http://www.w3.org/2000/svg" viewBox="0 0 64 64">
  <defs>
    <linearGradient id="stoonGradient" x1="8" y1="8" x2="56" y2="56">
      <stop offset="0" stop-color="#7c5cff"/>
      <stop offset="1" stop-color="#4937df"/>
    </linearGradient>
  </defs>
  <rect width="64" height="64" rx="18" fill="#f5f3ff"/>
  <circle cx="31" cy="34" r="23" fill="url(#stoonGradient)"/>
  <circle cx="49" cy="13" r="7" fill="#00d5d8"/>
  <path d="M39.5 23.5c-2.2-2.1-5.1-3.1-8.4-3.1-5.2 0-9.2 2.8-9.2 7.1 0 4.8 4.2 6.1 8.8 7.2 3.8.9 5.3 1.6 5.3 3.7 0 2-1.9 3.4-5 3.4-3.4 0-6.3-1.3-8.7-3.7l-3.2 4c3 3.1 7 4.7 11.7 4.7 6.2 0 10.4-3.3 10.4-8.3 0-5.1-4.1-6.6-9.4-7.9-3.2-.8-4.8-1.4-4.8-3.2 0-1.6 1.6-2.7 4.2-2.7 2.5 0 4.5.8 6.3 2.5z" fill="#fff"/>
</svg>
